<?xml version="1.0" encoding="utf-8"?>
<!-- Generator: Adobe Illustrator 24.1.0, SVG Export Plug-In . SVG Version: 6.00 Build 0)  -->
<svg version="1.1" id="Layer_1" xmlns="http://www.w3.org/2000/svg" xmlns:xlink="http://www.w3.org/1999/xlink" x="0px" y="0px"
	 viewBox="0 0 500 792" style="enable-background:new 0 0 500 792;" xml:space="preserve">
<style type="text/css">
	.st0{fill:#008EB4;}
	.st1{fill:#00263D;}
</style>
<g>
	<g>
		<path class="st0" d="M461.9,408.8c0,111.8-87.6,190.2-223.6,190.2c-80.1,0-164.3-28.4-217.7-70.9l60.1-112.6
			c43.4,46.7,93.4,70.9,145.9,70.9c58.4,0,90.1-28.4,90.1-75.9c0-0.9-0.2-1.6-0.2-2.3c-1-43.3-27.8-66.7-75.8-70.5l83.6-86.9
			c80.8,15.4,137.3,70.3,137.6,157.4C461.9,408.4,461.9,408.6,461.9,408.8z"/>
	</g>
	<g>
		<polygon class="st0" points="379.2,151.7 313.9,219.6 289.1,245.4 201,337.1 132.4,337.1 132.4,257.8 166.8,222 234.1,151.7 		"/>
	</g>
	<g>
		<polygon class="st0" points="435.2,9.2 435.2,93.5 407.1,122.7 49.8,122.7 49.8,9.2 		"/>
	</g>
	<g>
		<path class="st1" d="M121.4,621.2v159.5h-16.9v-21.4c-3.5,7.3-8.6,13.1-15.3,17.4c-6.7,4.3-14.5,6.5-23.5,6.5
			c-9.6,0-18.3-2.5-26.2-7.5c-7.9-5-14.2-12-18.8-21.1c-4.6-9-6.9-19.3-6.9-30.9c0-11.2,2.3-21.4,6.9-30.4
			c4.6-9,10.9-16.1,18.8-21.2c7.9-5.1,16.8-7.6,26.7-7.6c8.5,0,16.1,1.9,22.8,5.8c6.7,3.9,11.8,9,15.5,15.4v-64.5H121.4z
			 M87.3,761.5c5.7-3.7,10.2-8.8,13.4-15.4c3.3-6.5,4.9-14,4.9-22.3c0-12.8-3.4-23.1-10.1-31.1c-6.8-8-15.8-12-27.2-12
			c-7.1,0-13.6,1.9-19.3,5.6c-5.7,3.7-10.1,8.9-13.3,15.4c-3.2,6.5-4.8,13.9-4.8,22.1c0,8.2,1.6,15.6,4.8,22.2
			c3.2,6.6,7.6,11.8,13.3,15.5c5.7,3.7,12.1,5.6,19.3,5.6C75.3,767,81.6,765.2,87.3,761.5z"/>
		<path class="st1" d="M222.5,670.1c7,3.9,12.5,9.4,16.4,16.5c3.9,7.1,5.9,15.3,5.9,24.6v69.5H228v-18.5
			c-3.6,6.1-9.1,11.1-16.4,14.9c-7.3,3.9-15.2,5.8-23.7,5.8c-10.6,0-19.5-3.1-26.7-9.2c-7.1-6.2-10.7-14.2-10.7-24
			c0-9.3,3.3-16.9,10-22.8c6.7-5.9,15.6-9.9,26.7-12.1l40.6-8.2c-0.9-7.7-3.8-14.2-8.8-19.3c-4.9-5.1-11.4-7.6-19.5-7.6
			c-6.5,0-12.6,1.7-18.3,5c-5.7,3.3-10.2,7.7-13.6,13l-13.7-9.6c4.7-7.1,11.1-12.9,19.1-17.3c8.1-4.4,16.5-6.6,25.3-6.6
			C207.5,664.3,215.6,666.2,222.5,670.1z M209.7,763.2c5.5-2.7,10-6.5,13.3-11.4c3.3-4.9,5-10.4,5-16.6v-13.4l-37.6,7.7
			c-7,1.5-12.6,4-16.7,7.3c-4.2,3.3-6.3,7.5-6.3,12.5c0,5.3,2.3,9.7,6.8,13c4.6,3.3,10.4,5,17.5,5
			C198.2,767.3,204.1,765.9,209.7,763.2z"/>
		<path class="st1" d="M351.7,767.5c-3.8,5.2-9,9.2-15.5,12s-13.7,4.2-21.6,4.2c-11.7,0-21.5-2.8-29.5-8.5
			c-8-5.7-12.9-13.1-14.7-22.2l15.3-4.8c1.4,6.1,4.6,10.9,9.8,14.6c5.2,3.6,11.5,5.5,18.9,5.5c7.1,0,13.3-1.6,18.5-4.8
			c5.2-3.2,7.7-7.4,7.7-12.5c0-3.8-1.4-6.9-4.2-9.3c-2.8-2.4-5.9-4.3-9.2-5.5c-3.3-1.2-8.3-2.7-14.8-4.6c-11.1-3.2-20-7.1-26.8-11.8
			c-6.8-4.7-10.1-11.9-10.1-21.6c0-6.7,1.8-12.6,5.5-17.8c3.6-5.2,8.5-9.1,14.7-11.8c6.2-2.7,12.9-4.1,20.2-4.1
			c10.6,0,19.6,2.8,27,8.5c7.4,5.7,11.9,13.1,13.6,22.2l-14.8,4.6c-1.2-5.9-4.1-10.7-8.8-14.4c-4.6-3.6-10.2-5.5-16.8-5.5
			c-6.4,0-11.9,1.6-16.6,4.9c-4.7,3.3-7.1,7.4-7.1,12.4c0,4.4,2,8,6.1,10.8c4.1,2.8,10.3,5.4,18.7,7.6c7.7,2.1,14.2,4.3,19.4,6.4
			c5.2,2.1,9.9,5.5,14.4,10c4.4,4.6,6.6,10.5,6.6,17.8C357.4,756.4,355.5,762.3,351.7,767.5z"/>
		<path class="st1" d="M463.5,670.5c6.8,4.2,12.1,10,16.1,17.4c3.9,7.4,5.9,16,5.9,25.5v67.2h-16.9v-64.3c0-7.3-1.4-13.7-4.2-19.1
			c-2.8-5.5-6.6-9.7-11.4-12.6c-4.8-3-10.1-4.4-16.1-4.4c-6.5,0-12.3,1.7-17.4,5.1c-5.1,3.4-9.1,7.9-12,13.6
			c-2.9,5.6-4.3,11.7-4.3,18.2v63.6h-16.9V621.2h16.9v64.7c3.6-6.4,8.8-11.6,15.6-15.6c6.8-4,14.2-6,22.2-6
			C449.3,664.3,456.8,666.4,463.5,670.5z"/>
	</g>
</g>
</svg>
