<?xml version="1.0" encoding="utf-8"?>
<!-- Generator: Adobe Illustrator 24.1.0, SVG Export Plug-In . SVG Version: 6.00 Build 0)  -->
<svg version="1.1" id="Layer_1" xmlns="http://www.w3.org/2000/svg" xmlns:xlink="http://www.w3.org/1999/xlink" x="0px" y="0px"
	 viewBox="0 0 500 500" style="enable-background:new 0 0 500 500;" xml:space="preserve">
<style type="text/css">
	.st0{fill:#008EB4;}
</style>
<g>
	<path class="st0" d="M329,208.1l-68.4,71.2c33.1,5.5,51.3,24.5,52.1,56.9c0,0.7,0.1,1.2,0.1,2c0,39.4-26.2,62.9-74.7,62.9
		c-43.5,0-85-20-121-58.8l-49.8,93.3c44.3,35.3,114.1,58.8,180.6,58.8c112.7,0,185.3-65,185.3-157.6v-0.5
		C432.9,267.7,390.7,223.2,329,208.1z"/>
	<polygon class="st0" points="160,211.6 160,277.3 216.9,277.3 356.2,132.5 235.9,132.5 	"/>
	<polygon class="st0" points="387.8,99.5 411,75.4 411,5.6 91.6,5.6 91.6,99.5 	"/>
</g>
</svg>
